<svg id="Layer_1" data-name="Layer 1" xmlns="http://www.w3.org/2000/svg" viewBox="0 0 1500 512"><defs><style>.cls-1{fill:#fff;}</style></defs><title>REVELWELL- Main-Logo-All White</title><path class="cls-1" d="M225.06,160.68a18.49,18.49,0,1,0,25.77,4.47,18.5,18.5,0,0,0-25.77-4.47"/><path class="cls-1" d="M351.3,354.69,299.66,280.5h14.88a32.52,32.52,0,1,0,0-65H281.19a26.79,26.79,0,0,0-24.62,16.19l-23.45,54.28h-17l26.13-60.45a42.34,42.34,0,0,1,38.89-25.57h33.35a48.07,48.07,0,0,1,13.53,94.2l42.2,60.58Z"/><path class="cls-1" d="M496.26,246.16c5.54,0,10.12-4.9,10.12-11.08s-4.58-11-10.12-11H481.14v22.06ZM481.14,259v25.89H466.43V210.36h29.83a24.76,24.76,0,0,1,24.82,24.72c0,9.37-5.86,17.79-14.38,21.73l16.51,28.12H507.34l-15-25.89Z"/><polygon class="cls-1" points="616.3 270.87 616.3 284.93 570.18 284.93 570.18 210.37 615.77 210.37 615.77 224.43 584.88 224.43 584.88 240.3 613.11 240.3 613.11 254.15 584.88 254.15 584.88 270.87 616.3 270.87"/><polygon class="cls-1" points="658.38 210.37 674.35 210.37 692.57 267.67 710.67 210.37 726.76 210.37 701.62 284.93 683.4 284.93 658.38 210.37"/><polygon class="cls-1" points="818.36 270.87 818.36 284.93 772.24 284.93 772.24 210.37 817.83 210.37 817.83 224.43 786.94 224.43 786.94 240.3 815.17 240.3 815.17 254.15 786.94 254.15 786.94 270.87 818.36 270.87"/><polygon class="cls-1" points="910.18 270.87 910.18 284.93 867.04 284.93 867.04 210.37 881.74 210.37 881.74 270.87 910.18 270.87"/><polygon class="cls-1" points="969.61 280.86 969.81 280.86 988.87 210.37 990.99 210.37 1010.25 280.86 1010.45 280.86 1030.42 210.37 1033.54 210.37 1012.16 284.99 1008.23 284.99 989.98 218.34 989.78 218.34 971.73 284.99 967.69 284.99 946.41 210.37 949.64 210.37 969.61 280.86"/><polygon class="cls-1" points="1119.76 210.37 1119.76 212.99 1081.85 212.99 1081.85 246.17 1119.76 246.17 1119.76 248.79 1081.85 248.79 1081.85 282.37 1119.76 282.37 1119.76 284.99 1078.82 284.99 1078.82 210.37 1119.76 210.37"/><polygon class="cls-1" points="1173.31 282.37 1204.88 282.37 1204.88 284.99 1170.29 284.99 1170.29 210.37 1173.31 210.37 1173.31 282.37"/><polygon class="cls-1" points="1249.24 210.37 1249.24 284.99 1283.83 284.99 1283.83 282.37 1252.27 282.37 1252.27 210.37 1249.24 210.37"/><path class="cls-1" d="M911.23,348.9a1.75,1.75,0,0,0,0-3.49,1.75,1.75,0,1,0,0,3.49M905,331v-1.91h-5.79v-5.43l-2,.58v4.85H893V331h4.27v12.62c0,4.43,2.68,5.67,7.77,4.89v-1.75c-4,.35-5.79.28-5.79-3.14V331Zm-26.45-2.33a7.31,7.31,0,0,0-6.95,4.11v-3.69h-1.94v19.42h1.94V338.26c0-5.24,3-7.73,6.79-7.73s5.71,2.33,5.71,5.91v12.07h2V336.44c0-4.71-2.92-7.77-7.54-7.77M852,330.53c3.8,0,7.14,2.64,7.57,7.38H844a7.82,7.82,0,0,1,8-7.38m0-1.86a10.14,10.14,0,1,0,.15,20.27,9.58,9.58,0,0,0,8.47-4.39l-1.71-1a7.4,7.4,0,0,1-6.72,3.54,7.9,7.9,0,0,1-8.23-7.27h17.59c0-.31,0-.62,0-.93,0-5.32-3.69-10.21-9.59-10.21m-24.79,0a7.07,7.07,0,0,0-6.48,4,6.14,6.14,0,0,0-6.06-4,6.76,6.76,0,0,0-6.25,3.76v-3.34h-2v19.42h2V337.68c0-5,2.83-7.15,6-7.15,3,0,5,2,5,5.67v12.31h1.94V337.68c0-5,2.56-7.15,5.83-7.15,3,0,5.16,2,5.16,5.67v12.31h1.94V336.2c0-4.86-3-7.53-7.07-7.53m-38.37,1.86c3.81,0,7.15,2.64,7.58,7.38H780.84a7.83,7.83,0,0,1,8-7.38m0-1.86a10.14,10.14,0,1,0,.16,20.27,9.56,9.56,0,0,0,8.46-4.39l-1.71-1a7.37,7.37,0,0,1-6.71,3.54,7.92,7.92,0,0,1-8.24-7.27h17.6c0-.31,0-.62,0-.93,0-5.32-3.68-10.21-9.59-10.21m-17,.42-7.34,17.4-7.3-17.4h-2.1l8.24,19.42h2.36l8.2-19.42Zm-31.81,18a8.28,8.28,0,1,1,8.2-8.28,8.17,8.17,0,0,1-8.2,8.28m0,1.86a10.14,10.14,0,1,0-10.21-10.14A10.06,10.06,0,0,0,740,348.94m-24.94-20.27a7.07,7.07,0,0,0-6.48,4,6.14,6.14,0,0,0-6.06-4,6.76,6.76,0,0,0-6.25,3.76v-3.34h-1.94v19.42h1.94V337.68c0-5,2.83-7.15,6-7.15,3,0,5,2,5,5.67v12.31h1.94V337.68c0-5,2.57-7.15,5.83-7.15,3,0,5.16,2,5.16,5.67v12.31h1.95V336.2c0-4.86-3-7.53-7.08-7.53m-51.11,0a7.32,7.32,0,0,0-7,4.11v-3.69h-1.94v19.42H657V338.26c0-5.24,3-7.73,6.8-7.73,3.65,0,5.71,2.33,5.71,5.91v12.07h2V336.44c0-4.71-2.92-7.77-7.54-7.77m-28.54,18.41a8.28,8.28,0,1,1,8.19-8.28,8.17,8.17,0,0,1-8.19,8.28m8.19-18v4.39a9.33,9.33,0,0,0-8.35-4.81,10.14,10.14,0,0,0,0,20.27,9.32,9.32,0,0,0,8.35-4.82v4.39h2V329.09ZM610,328.67a7.32,7.32,0,0,0-7,4.11V321.33h-1.94v27.18h1.94V338.26c0-5.24,3-7.73,6.8-7.73,3.65,0,5.71,2.33,5.71,5.91v12.07h2V336.44c0-4.71-2.91-7.77-7.53-7.77M593,331v-1.91h-5.79v-5.43l-2,.58v4.85h-4.28V331h4.28v12.62c0,4.43,2.68,5.67,7.76,4.89v-1.75c-4,.35-5.79.28-5.79-3.14V331Zm-41.44-.47c3.81,0,7.15,2.64,7.58,7.38H543.49a7.83,7.83,0,0,1,8-7.38m0-1.86a10.14,10.14,0,1,0,.16,20.27,9.59,9.59,0,0,0,8.47-4.39l-1.71-1a7.4,7.4,0,0,1-6.72,3.54,7.92,7.92,0,0,1-8.24-7.27h17.6c0-.31,0-.62,0-.93,0-5.32-3.68-10.21-9.59-10.21m-21.48,4.23v-3.81h-1.94v19.42h1.94V337.72c0-5,3.15-7,6.49-7v-1.86a6.55,6.55,0,0,0-6.49,4.08m-20.27,14.18A8.28,8.28,0,1,1,518,338.8a8.18,8.18,0,0,1-8.19,8.28m0,1.86a10.14,10.14,0,1,0-10.21-10.14,10.05,10.05,0,0,0,10.21,10.14M491,321.33h-2.6l-9.71,16.07L469,321.33h-2.57v27.18h2.06V324.35l10.06,16.7h.35L489,324.35v24.16H491Z"/></svg>